<svg id="visual" viewBox="0 0 900 600" width="900" height="600" xmlns="http://www.w3.org/2000/svg" xmlns:xlink="http://www.w3.org/1999/xlink" version="1.1"><path d="M0 392L15 397.5C30 403 60 414 90 417.3C120 420.7 150 416.3 180 413.7C210 411 240 410 270 406.2C300 402.3 330 395.7 360 394.3C390 393 420 397 450 402.7C480 408.3 510 415.7 540 411C570 406.3 600 389.7 630 384.3C660 379 690 385 720 392.2C750 399.3 780 407.7 810 406C840 404.3 870 392.7 885 386.8L900 381L900 601L885 601C870 601 840 601 810 601C780 601 750 601 720 601C690 601 660 601 630 601C600 601 570 601 540 601C510 601 480 601 450 601C420 601 390 601 360 601C330 601 300 601 270 601C240 601 210 601 180 601C150 601 120 601 90 601C60 601 30 601 15 601L0 601Z" fill="#7d7c86"></path><path d="M0 469L15 462.3C30 455.7 60 442.3 90 431.2C120 420 150 411 180 416.3C210 421.7 240 441.3 270 448.5C300 455.7 330 450.3 360 438.7C390 427 420 409 450 401.7C480 394.3 510 397.7 540 398.2C570 398.7 600 396.3 630 404.5C660 412.7 690 431.3 720 434.7C750 438 780 426 810 423.8C840 421.7 870 429.3 885 433.2L900 437L900 601L885 601C870 601 840 601 810 601C780 601 750 601 720 601C690 601 660 601 630 601C600 601 570 601 540 601C510 601 480 601 450 601C420 601 390 601 360 601C330 601 300 601 270 601C240 601 210 601 180 601C150 601 120 601 90 601C60 601 30 601 15 601L0 601Z" fill="#646274"></path><path d="M0 470L15 470.7C30 471.3 60 472.7 90 474.5C120 476.3 150 478.7 180 482.3C210 486 240 491 270 492.5C300 494 330 492 360 487.7C390 483.3 420 476.7 450 468.8C480 461 510 452 540 454.5C570 457 600 471 630 470.7C660 470.3 690 455.7 720 451.7C750 447.7 780 454.3 810 457C840 459.7 870 458.3 885 457.7L900 457L900 601L885 601C870 601 840 601 810 601C780 601 750 601 720 601C690 601 660 601 630 601C600 601 570 601 540 601C510 601 480 601 450 601C420 601 390 601 360 601C330 601 300 601 270 601C240 601 210 601 180 601C150 601 120 601 90 601C60 601 30 601 15 601L0 601Z" fill="#4b4a63"></path><path d="M0 498L15 499.5C30 501 60 504 90 504.2C120 504.3 150 501.7 180 505.2C210 508.7 240 518.3 270 515.3C300 512.3 330 496.7 360 491C390 485.3 420 489.7 450 491C480 492.3 510 490.7 540 490.5C570 490.3 600 491.7 630 497.7C660 503.7 690 514.3 720 513.8C750 513.3 780 501.7 810 498.8C840 496 870 502 885 505L900 508L900 601L885 601C870 601 840 601 810 601C780 601 750 601 720 601C690 601 660 601 630 601C600 601 570 601 540 601C510 601 480 601 450 601C420 601 390 601 360 601C330 601 300 601 270 601C240 601 210 601 180 601C150 601 120 601 90 601C60 601 30 601 15 601L0 601Z" fill="#333352"></path><path d="M0 555L15 552.7C30 550.3 60 545.7 90 542.3C120 539 150 537 180 540.7C210 544.3 240 553.7 270 559.2C300 564.7 330 566.3 360 560C390 553.7 420 539.3 450 537.5C480 535.7 510 546.3 540 550.3C570 554.3 600 551.7 630 553.5C660 555.3 690 561.7 720 558.8C750 556 780 544 810 537.2C840 530.3 870 528.7 885 527.8L900 527L900 601L885 601C870 601 840 601 810 601C780 601 750 601 720 601C690 601 660 601 630 601C600 601 570 601 540 601C510 601 480 601 450 601C420 601 390 601 360 601C330 601 300 601 270 601C240 601 210 601 180 601C150 601 120 601 90 601C60 601 30 601 15 601L0 601Z" fill="#191d42"></path></svg>